<?xml version="1.0" encoding="utf-8"?>
<!-- Generator: Adobe Illustrator 17.1.0, SVG Export Plug-In . SVG Version: 6.00 Build 0)  -->
<!DOCTYPE svg PUBLIC "-//W3C//DTD SVG 1.1//EN" "http://www.w3.org/Graphics/SVG/1.1/DTD/svg11.dtd">
<svg version="1.1" id="Layer_1" xmlns="http://www.w3.org/2000/svg" xmlns:xlink="http://www.w3.org/1999/xlink" x="0px" y="0px"
	 width="269px" height="52px" viewBox="0 0 269 52" enable-background="new 0 0 269 52" xml:space="preserve">
<g>
	<polygon fill="#231F20" points="163,17.5 163,33.5 139.7,33.5 139.7,17.5 138.2,17.5 138.2,51 139.7,51 139.7,34.9 163,34.9 
		163,51 164.6,51 164.6,17.5 	"/>
	<polygon fill="#231F20" points="69.5,17.5 69.5,51 87.5,51 87.5,49.5 71,49.5 71,34.9 83.7,34.9 83.7,33.5 71,33.5 71,19 87,19 
		87,17.5 	"/>
	<polygon fill="#231F20" points="56.3,17.5 56.3,33.5 33,33.5 33,17.5 31.5,17.5 31.5,51 33,51 33,34.9 56.3,34.9 56.3,51 57.9,51 
		57.9,17.5 	"/>
	<polygon fill="#231F20" points="1,17.5 1,19 11.3,19 11.3,51 12.9,51 12.9,19 23.2,19 23.2,17.5 	"/>
	<path fill="#231F20" d="M118.4,51.5c-4.6,0-7.9-1.8-10.7-5.8l-0.2-0.2l1.3-0.9l0.2,0.3c2.2,3.5,5.4,5.2,9.4,5.2c4,0,8-2.5,8-7.4
		c0-3.2-1.6-5.3-5.2-7c-1-0.4-2-0.8-3.1-1.2c-4.4-1.7-9-3.5-9-8.8c0-6.1,5.6-8.4,9.1-8.4c3.2,0,6,1.1,8.2,3.4l0.2,0.2l-1,1.1
		l-0.2-0.2c-1.9-2-4.3-3-7.1-3c-2.9,0-7.6,1.9-7.6,7c0,4.4,3.9,5.9,8,7.4c1,0.4,2.1,0.8,3.1,1.2c2.7,1.2,6.2,3.3,6.2,8.4
		C128,47.7,124,51.5,118.4,51.5"/>
	<path fill="#231F20" d="M220,33.5c2.2,0,3.8-0.5,5.1-1.5c1.3-1.1,2.1-3.1,2.2-5.1v-1.1c0-2-0.9-4.1-2.2-5.2c-1.2-1.1-2.8-1.5-5-1.5
		h-9.5v14.5H220z M231,51l-13.6-16.1h-6.9V51H209V17.5h11.1c2.5,0,4.4,0.6,5.9,1.8c1.7,1.4,2.8,4,2.8,6.5l0,1.1
		c-0.1,2.5-1.2,4.9-2.8,6.3c-1.5,1.2-3.3,1.8-5.9,1.8h-0.7L232.9,51H231z"/>
	<path fill="#231F20" d="M249.8,49.5c4.6,0,8-0.9,10.6-2.9c3.8-2.8,6-7.3,6-12.3c0-5-2.2-9.5-6-12.3c-2.7-2-6.1-2.9-10.7-2.9h-7.6
		v30.5H249.8z M240.6,51V17.5h9.2c5,0,8.5,1,11.4,3.2c4.2,3.1,6.7,8.2,6.7,13.6c0,5.4-2.5,10.5-6.7,13.6c-3,2.2-6.5,3.2-11.4,3.2
		H240.6z"/>
	<polygon fill="#231F20" points="186.3,1 173.6,51 175.2,51 179.3,34.9 194.8,34.9 198.9,51 200.5,51 189.8,9.2 188.2,9.2 
		194.4,33.4 179.7,33.4 187.9,1 	"/>
</g>
</svg>
